<?xml version="1.0" encoding="UTF-8"?>
<svg xmlns="http://www.w3.org/2000/svg" version="1.1" viewBox="0 0 64 64">
  <defs>
    <style>
      .cls-1 {
        fill: #325f74;
      }

      .cls-2 {
        fill: #fff;
      }

      .cls-3 {
        fill: #9aca3c;
      }
    </style>
  </defs>
  <g>
    <g id="_layer_1" data-name="layer_1">
      <g>
        <rect class="cls-3" x="5.9" y="5.9" width="52.2" height="52.2" rx="10.7" ry="10.7"/>
        <g>
          <path class="cls-1" d="M28.7,42.7c0-5.8,3.6-10.8,8.7-12.9v-5.6c0-1.9-1.5-3.4-3.4-3.4h-.9v-2.9c0-4.6-3.7-8.3-8.3-8.3s-8.3,3.7-8.3,8.3v2.9h-.9c-1.9,0-3.4,1.5-3.4,3.4v15.2c0,1.9,1.5,3.4,3.4,3.4h13.1c0,0,0-.1,0-.2ZM19.4,17.9c0-2.9,2.4-5.3,5.3-5.3s5.3,2.4,5.3,5.3v2.9h-10.7v-2.9ZM26.5,31v5.1h-3.5v-5.1c-.7-.5-1.2-1.4-1.2-2.4,0-1.6,1.3-3,3-3s3,1.3,3,3-.5,1.8-1.2,2.4Z"/>
          <path class="cls-2" d="M42.5,30.7c-6.6,0-12,5.4-12,12s5.4,12,12,12,12-5.4,12-12-5.4-12-12-12ZM42.6,50.2h-3.6l1.6-3.7-3.8-10h3.5l2.1,5.5,2.3-5.5h3.6s-5.7,13.7-5.7,13.7Z"/>
        </g>
      </g>
    </g>
  </g>
</svg>
